<svg width="138" height="50" viewBox="0 0 138 50" fill="none" xmlns="http://www.w3.org/2000/svg">
<path d="M32.71 38.306C30.8967 38.306 29.2647 37.9093 27.814 37.116C26.3633 36.3 25.2187 35.1553 24.38 33.682C23.564 32.2087 23.156 30.5087 23.156 28.582C23.156 26.6553 23.5753 24.9553 24.414 23.482C25.2753 22.0087 26.4427 20.8753 27.916 20.082C29.3893 19.266 31.0327 18.858 32.846 18.858C34.6593 18.858 36.3027 19.266 37.776 20.082C39.2493 20.8753 40.4053 22.0087 41.244 23.482C42.1053 24.9553 42.536 26.6553 42.536 28.582C42.536 30.5087 42.094 32.2087 41.21 33.682C40.3487 35.1553 39.17 36.3 37.674 37.116C36.2007 37.9093 34.546 38.306 32.71 38.306ZM32.71 34.158C33.5713 34.158 34.376 33.954 35.124 33.546C35.8947 33.1153 36.5067 32.4807 36.96 31.642C37.4133 30.8033 37.64 29.7833 37.64 28.582C37.64 26.7913 37.164 25.42 36.212 24.468C35.2827 23.4933 34.138 23.006 32.778 23.006C31.418 23.006 30.2733 23.4933 29.344 24.468C28.4373 25.42 27.984 26.7913 27.984 28.582C27.984 30.3727 28.426 31.7553 29.31 32.73C30.2167 33.682 31.35 34.158 32.71 34.158ZM54.3916 38.306C52.5783 38.306 50.9463 37.9093 49.4956 37.116C48.045 36.3 46.9003 35.1553 46.0616 33.682C45.2456 32.2087 44.8376 30.5087 44.8376 28.582C44.8376 26.6553 45.257 24.9553 46.0956 23.482C46.957 22.0087 48.1243 20.8753 49.5976 20.082C51.071 19.266 52.7143 18.858 54.5276 18.858C56.341 18.858 57.9843 19.266 59.4576 20.082C60.931 20.8753 62.087 22.0087 62.9256 23.482C63.787 24.9553 64.2176 26.6553 64.2176 28.582C64.2176 30.5087 63.7756 32.2087 62.8916 33.682C62.0303 35.1553 60.8516 36.3 59.3556 37.116C57.8823 37.9093 56.2276 38.306 54.3916 38.306ZM54.3916 34.158C55.253 34.158 56.0576 33.954 56.8056 33.546C57.5763 33.1153 58.1883 32.4807 58.6416 31.642C59.095 30.8033 59.3216 29.7833 59.3216 28.582C59.3216 26.7913 58.8456 25.42 57.8936 24.468C56.9643 23.4933 55.8196 23.006 54.4596 23.006C53.0996 23.006 51.955 23.4933 51.0256 24.468C50.119 25.42 49.6656 26.7913 49.6656 28.582C49.6656 30.3727 50.1076 31.7553 50.9916 32.73C51.8983 33.682 53.0316 34.158 54.3916 34.158ZM91.1013 18.892C93.4133 18.892 95.2719 19.606 96.6773 21.034C98.1053 22.4393 98.8193 24.4113 98.8193 26.95V38H94.0593V27.596C94.0593 26.1227 93.6853 25.0007 92.9373 24.23C92.1893 23.4367 91.1693 23.04 89.8773 23.04C88.5853 23.04 87.5539 23.4367 86.7833 24.23C86.0353 25.0007 85.6613 26.1227 85.6613 27.596V38H80.9013V27.596C80.9013 26.1227 80.5273 25.0007 79.7793 24.23C79.0313 23.4367 78.0113 23.04 76.7193 23.04C75.4046 23.04 74.3619 23.4367 73.5913 24.23C72.8433 25.0007 72.4693 26.1227 72.4693 27.596V38H67.7093V19.164H72.4693V21.442C73.0813 20.6487 73.8633 20.0253 74.8153 19.572C75.7899 19.1187 76.8553 18.892 78.0113 18.892C79.4846 18.892 80.7993 19.2093 81.9553 19.844C83.1113 20.456 84.0066 21.34 84.6413 22.496C85.2533 21.408 86.1373 20.5353 87.2933 19.878C88.4719 19.2207 89.7413 18.892 91.1013 18.892ZM120.846 28.174C120.846 28.854 120.801 29.466 120.71 30.01H106.94C107.054 31.37 107.53 32.4353 108.368 33.206C109.207 33.9767 110.238 34.362 111.462 34.362C113.23 34.362 114.488 33.6027 115.236 32.084H120.37C119.826 33.8973 118.784 35.3933 117.242 36.572C115.701 37.728 113.808 38.306 111.564 38.306C109.751 38.306 108.119 37.9093 106.668 37.116C105.24 36.3 104.118 35.1553 103.302 33.682C102.509 32.2087 102.112 30.5087 102.112 28.582C102.112 26.6327 102.509 24.9213 103.302 23.448C104.096 21.9747 105.206 20.8413 106.634 20.048C108.062 19.2547 109.706 18.858 111.564 18.858C113.355 18.858 114.953 19.2433 116.358 20.014C117.786 20.7847 118.886 21.884 119.656 23.312C120.45 24.7173 120.846 26.338 120.846 28.174ZM115.916 26.814C115.894 25.59 115.452 24.6153 114.59 23.89C113.729 23.142 112.675 22.768 111.428 22.768C110.25 22.768 109.252 23.1307 108.436 23.856C107.643 24.5587 107.156 25.5447 106.974 26.814H115.916Z" fill="#EEB53C"/>
<path d="M27.814 37.116L27.5689 37.5518L27.5741 37.5547L27.814 37.116ZM24.38 33.682L23.9426 33.9243L23.9455 33.9293L24.38 33.682ZM24.414 23.482L23.9823 23.2296L23.9795 23.2346L24.414 23.482ZM27.916 20.082L28.1531 20.5223L28.1583 20.5194L27.916 20.082ZM37.776 20.082L37.5337 20.5194L37.539 20.5222L37.776 20.082ZM41.244 23.482L40.8094 23.7294L40.8124 23.7343L41.244 23.482ZM41.21 33.682L40.7812 33.4247L40.7784 33.4297L41.21 33.682ZM37.674 37.116L37.9111 37.5562L37.9134 37.5549L37.674 37.116ZM35.124 33.546L35.3634 33.985L35.3679 33.9825L35.124 33.546ZM36.96 31.642L37.3999 31.8798H37.3999L36.96 31.642ZM36.212 24.468L35.85 24.8131L35.8584 24.8216L36.212 24.468ZM29.344 24.468L28.9821 24.123L28.9819 24.1232L29.344 24.468ZM29.31 32.73L28.9395 33.066L28.9479 33.0748L29.31 32.73ZM32.71 37.806C30.9722 37.806 29.4241 37.4266 28.0539 36.6773L27.5741 37.5547C29.1053 38.3921 30.8211 38.806 32.71 38.806V37.806ZM28.0591 36.6802C26.6891 35.9095 25.6092 34.8307 24.8145 33.4347L23.9455 33.9293C24.8281 35.48 26.0376 36.6905 27.5689 37.5518L28.0591 36.6802ZM24.8174 33.4398C24.0481 32.0507 23.656 30.4363 23.656 28.582H22.656C22.656 30.5811 23.0799 32.3667 23.9426 33.9242L24.8174 33.4398ZM23.656 28.582C23.656 26.73 24.0584 25.1175 24.8485 23.7293L23.9795 23.2346C23.0923 24.7932 22.656 26.5806 22.656 28.582H23.656ZM24.8456 23.7343C25.6616 22.3387 26.7623 21.2711 28.1531 20.5222L27.679 19.6418C26.123 20.4796 24.8891 21.6787 23.9824 23.2297L24.8456 23.7343ZM28.1583 20.5194C29.5518 19.7476 31.1107 19.358 32.846 19.358V18.358C30.9546 18.358 29.2269 18.7844 27.6738 19.6446L28.1583 20.5194ZM32.846 19.358C34.5813 19.358 36.1402 19.7476 37.5338 20.5194L38.0183 19.6446C36.4651 18.7844 34.7374 18.358 32.846 18.358V19.358ZM37.539 20.5222C38.9285 21.2705 40.0166 22.3364 40.8095 23.7293L41.6785 23.2346C40.7941 21.6809 39.5701 20.4802 38.0131 19.6418L37.539 20.5222ZM40.8124 23.7343C41.6234 25.1216 42.036 26.7324 42.036 28.582H43.036C43.036 26.5783 42.5873 24.789 41.6756 23.2297L40.8124 23.7343ZM42.036 28.582C42.036 30.4293 41.6132 32.0383 40.7813 33.4248L41.6387 33.9392C42.5748 32.3791 43.036 30.588 43.036 28.582H42.036ZM40.7784 33.4297C39.9629 34.8246 38.8506 35.9047 37.4346 36.6771L37.9134 37.5549C39.4894 36.6953 40.7345 35.4861 41.6416 33.9343L40.7784 33.4297ZM37.437 36.6758C36.0434 37.4261 34.4715 37.806 32.71 37.806V38.806C34.6205 38.806 36.358 38.3925 37.9111 37.5562L37.437 36.6758ZM32.71 34.658C33.654 34.658 34.5411 34.4335 35.3634 33.9849L34.8846 33.1071C34.2109 33.4745 33.4886 33.658 32.71 33.658V34.658ZM35.3679 33.9825C36.2281 33.5018 36.9051 32.795 37.3999 31.8798L36.5201 31.4042C36.1082 32.1664 35.5613 32.7289 34.8801 33.1095L35.3679 33.9825ZM37.3999 31.8798C37.9016 30.9515 38.14 29.8452 38.14 28.582H37.14C37.14 29.7215 36.925 30.6552 36.5201 31.4042L37.3999 31.8798ZM38.14 28.582C38.14 26.704 37.6391 25.188 36.5656 24.1144L35.8584 24.8216C36.6889 25.652 37.14 26.8787 37.14 28.582H38.14ZM36.5739 24.123C35.5491 23.0482 34.2732 22.506 32.778 22.506V23.506C34.0028 23.506 35.0162 23.9384 35.8501 24.813L36.5739 24.123ZM32.778 22.506C31.2828 22.506 30.0069 23.0482 28.9821 24.123L29.7059 24.813C30.5398 23.9384 31.5532 23.506 32.778 23.506V22.506ZM28.9819 24.1232C27.9587 25.1975 27.484 26.7103 27.484 28.582H28.484C28.484 26.8724 28.9159 25.6425 29.7061 24.8128L28.9819 24.1232ZM27.484 28.582C27.484 30.4516 27.9461 31.9705 28.9396 33.0659L29.6804 32.3941C28.9059 31.5402 28.484 30.2938 28.484 28.582H27.484ZM28.9479 33.0748C29.9526 34.1297 31.2185 34.658 32.71 34.658V33.658C31.4815 33.658 30.4808 33.2343 29.6721 32.3852L28.9479 33.0748ZM49.4956 37.116L49.2505 37.5518L49.2557 37.5547L49.4956 37.116ZM46.0616 33.682L45.6242 33.9243L45.6271 33.9293L46.0616 33.682ZM46.0956 23.482L45.664 23.2296L45.6611 23.2346L46.0956 23.482ZM49.5976 20.082L49.8347 20.5223L49.8399 20.5194L49.5976 20.082ZM59.4576 20.082L59.2154 20.5194L59.2206 20.5222L59.4576 20.082ZM62.9256 23.482L62.4911 23.7294L62.494 23.7343L62.9256 23.482ZM62.8916 33.682L62.4629 33.4247L62.46 33.4297L62.8916 33.682ZM59.3556 37.116L59.5927 37.5562L59.5951 37.5549L59.3556 37.116ZM56.8056 33.546L57.0451 33.985L57.0496 33.9825L56.8056 33.546ZM58.6416 31.642L59.0815 31.8798L58.6416 31.642ZM57.8936 24.468L57.5317 24.8131L57.5401 24.8216L57.8936 24.468ZM51.0256 24.468L50.6638 24.123L50.6636 24.1232L51.0256 24.468ZM50.9916 32.73L50.6212 33.066L50.6296 33.0748L50.9916 32.73ZM54.3916 37.806C52.6539 37.806 51.1057 37.4266 49.7355 36.6773L49.2557 37.5547C50.7869 38.3921 52.5028 38.806 54.3916 38.806V37.806ZM49.7408 36.6802C48.3707 35.9095 47.2908 34.8307 46.4962 33.4347L45.6271 33.9293C46.5098 35.48 47.7193 36.6905 49.2505 37.5518L49.7408 36.6802ZM46.499 33.4398C45.7297 32.0507 45.3376 30.4363 45.3376 28.582H44.3376C44.3376 30.5811 44.7616 32.3667 45.6242 33.9242L46.499 33.4398ZM45.3376 28.582C45.3376 26.73 45.74 25.1175 46.5302 23.7293L45.6611 23.2346C44.774 24.7932 44.3376 26.5806 44.3376 28.582H45.3376ZM46.5273 23.7343C47.3432 22.3387 48.4439 21.2711 49.8347 20.5222L49.3606 19.6418C47.8047 20.4796 46.5707 21.6787 45.664 23.2297L46.5273 23.7343ZM49.8399 20.5194C51.2334 19.7476 52.7924 19.358 54.5276 19.358V18.358C52.6362 18.358 50.9085 18.7844 49.3554 19.6446L49.8399 20.5194ZM54.5276 19.358C56.2629 19.358 57.8218 19.7476 59.2154 20.5194L59.6999 19.6446C58.1468 18.7844 56.419 18.358 54.5276 18.358V19.358ZM59.2206 20.5222C60.6102 21.2705 61.6982 22.3364 62.4911 23.7293L63.3602 23.2346C62.4757 21.6809 61.2518 20.4802 59.6947 19.6418L59.2206 20.5222ZM62.494 23.7343C63.305 25.1216 63.7176 26.7324 63.7176 28.582H64.7176C64.7176 26.5783 64.2689 24.789 63.3573 23.2297L62.494 23.7343ZM63.7176 28.582C63.7176 30.4293 63.2948 32.0383 62.4629 33.4248L63.3204 33.9392C64.2565 32.3791 64.7176 30.588 64.7176 28.582H63.7176ZM62.46 33.4297C61.6445 34.8246 60.5322 35.9047 59.1162 36.6771L59.5951 37.5549C61.171 36.6953 62.4161 35.4861 63.3233 33.9343L62.46 33.4297ZM59.1186 36.6758C57.725 37.4261 56.1531 37.806 54.3916 37.806V38.806C56.3022 38.806 58.0396 38.3925 59.5927 37.5562L59.1186 36.6758ZM54.3916 34.658C55.3357 34.658 56.2228 34.4335 57.0451 33.9849L56.5662 33.1071C55.8925 33.4745 55.1703 33.658 54.3916 33.658V34.658ZM57.0496 33.9825C57.9097 33.5018 58.5868 32.795 59.0815 31.8798L58.2018 31.4042C57.7898 32.1664 57.2429 32.7289 56.5617 33.1095L57.0496 33.9825ZM59.0815 31.8798C59.5833 30.9515 59.8216 29.8452 59.8216 28.582H58.8216C58.8216 29.7215 58.6067 30.6552 58.2018 31.4042L59.0815 31.8798ZM59.8216 28.582C59.8216 26.704 59.3207 25.188 58.2472 24.1144L57.5401 24.8216C58.3705 25.652 58.8216 26.8787 58.8216 28.582H59.8216ZM58.2555 24.123C57.2308 23.0482 55.9548 22.506 54.4596 22.506V23.506C55.6844 23.506 56.6978 23.9384 57.5318 24.813L58.2555 24.123ZM54.4596 22.506C52.9644 22.506 51.6885 23.0482 50.6638 24.123L51.3875 24.813C52.2214 23.9384 53.2348 23.506 54.4596 23.506V22.506ZM50.6636 24.1232C49.6404 25.1975 49.1656 26.7103 49.1656 28.582H50.1656C50.1656 26.8724 50.5976 25.6425 51.3877 24.8128L50.6636 24.1232ZM49.1656 28.582C49.1656 30.4516 49.6277 31.9705 50.6213 33.0659L51.362 32.3941C50.5875 31.5402 50.1656 30.2938 50.1656 28.582H49.1656ZM50.6296 33.0748C51.6342 34.1297 52.9001 34.658 54.3916 34.658V33.658C53.1632 33.658 52.1624 33.2343 51.3537 32.3852L50.6296 33.0748ZM96.6773 21.034L96.3209 21.3848L96.3266 21.3904L96.6773 21.034ZM98.8193 38V38.5H99.3193V38H98.8193ZM94.0593 38H93.5593V38.5H94.0593V38ZM92.9373 24.23L92.5734 24.573L92.5785 24.5782L92.9373 24.23ZM86.7833 24.23L86.4246 23.8816L86.4245 23.8818L86.7833 24.23ZM85.6613 38V38.5H86.1613V38H85.6613ZM80.9013 38H80.4013V38.5H80.9013V38ZM79.7793 24.23L79.4155 24.573L79.4205 24.5782L79.7793 24.23ZM73.5913 24.23L73.2326 23.8816L73.2325 23.8818L73.5913 24.23ZM72.4693 38V38.5H72.9693V38H72.4693ZM67.7093 38H67.2093V38.5H67.7093V38ZM67.7093 19.164V18.664H67.2093V19.164H67.7093ZM72.4693 19.164H72.9693V18.664H72.4693V19.164ZM72.4693 21.442H71.9693V22.9087L72.8652 21.7474L72.4693 21.442ZM74.8153 19.572L74.6044 19.1186L74.6003 19.1206L74.8153 19.572ZM81.9553 19.844L81.7146 20.2823L81.7213 20.2859L81.9553 19.844ZM84.6413 22.496L84.203 22.7366L84.636 23.5253L85.0771 22.7411L84.6413 22.496ZM87.2933 19.878L87.0497 19.4413L87.0461 19.4434L87.2933 19.878ZM91.1013 19.392C93.3017 19.392 95.0242 20.0671 96.3209 21.3847L97.0337 20.6833C95.5197 19.1449 93.5249 18.392 91.1013 18.392V19.392ZM96.3266 21.3904C97.6352 22.6782 98.3193 24.5076 98.3193 26.95H99.3193C99.3193 24.3151 98.5754 22.2005 97.028 20.6776L96.3266 21.3904ZM98.3193 26.95V38H99.3193V26.95H98.3193ZM98.8193 37.5H94.0593V38.5H98.8193V37.5ZM94.5593 38V27.596H93.5593V38H94.5593ZM94.5593 27.596C94.5593 26.0419 94.1639 24.7759 93.2961 23.8818L92.5785 24.5782C93.2066 25.2254 93.5593 26.2035 93.5593 27.596H94.5593ZM93.3011 23.887C92.4412 22.975 91.2794 22.54 89.8773 22.54V23.54C91.0592 23.54 91.9374 23.8983 92.5735 24.573L93.3011 23.887ZM89.8773 22.54C88.4748 22.54 87.3053 22.975 86.4246 23.8816L87.1419 24.5784C87.8026 23.8983 88.6958 23.54 89.8773 23.54V22.54ZM86.4245 23.8818C85.5566 24.7759 85.1613 26.0419 85.1613 27.596H86.1613C86.1613 26.2035 86.5139 25.2254 87.1421 24.5782L86.4245 23.8818ZM85.1613 27.596V38H86.1613V27.596H85.1613ZM85.6613 37.5H80.9013V38.5H85.6613V37.5ZM81.4013 38V27.596H80.4013V38H81.4013ZM81.4013 27.596C81.4013 26.0419 81.0059 24.7759 80.1381 23.8818L79.4205 24.5782C80.0486 25.2254 80.4013 26.2035 80.4013 27.596H81.4013ZM80.1431 23.887C79.2832 22.975 78.1214 22.54 76.7193 22.54V23.54C77.9012 23.54 78.7794 23.8983 79.4155 24.573L80.1431 23.887ZM76.7193 22.54C75.297 22.54 74.115 22.9733 73.2326 23.8816L73.9499 24.5784C74.6089 23.9001 75.5122 23.54 76.7193 23.54V22.54ZM73.2325 23.8818C72.3646 24.7759 71.9693 26.0419 71.9693 27.596H72.9693C72.9693 26.2035 73.3219 25.2254 73.9501 24.5782L73.2325 23.8818ZM71.9693 27.596V38H72.9693V27.596H71.9693ZM72.4693 37.5H67.7093V38.5H72.4693V37.5ZM68.2093 38V19.164H67.2093V38H68.2093ZM67.7093 19.664H72.4693V18.664H67.7093V19.664ZM71.9693 19.164V21.442H72.9693V19.164H71.9693ZM72.8652 21.7474C73.4267 21.0196 74.1454 20.4448 75.0303 20.0234L74.6003 19.1206C73.5812 19.6059 72.7359 20.2778 72.0734 21.1366L72.8652 21.7474ZM75.0261 20.0254C75.9299 19.605 76.9225 19.392 78.0113 19.392V18.392C76.788 18.392 75.65 18.6323 74.6044 19.1186L75.0261 20.0254ZM78.0113 19.392C79.4105 19.392 80.6407 19.6927 81.7147 20.2823L82.1959 19.4057C80.9578 18.726 79.5587 18.392 78.0113 18.392V19.392ZM81.7213 20.2859C82.7903 20.8518 83.6149 21.6655 84.203 22.7366L85.0796 22.2554C84.3983 21.0145 83.4323 20.0602 82.1892 19.4021L81.7213 20.2859ZM85.0771 22.7411C85.6416 21.7375 86.458 20.9282 87.5404 20.3126L87.0461 19.4434C85.8166 20.1425 84.8649 21.0785 84.2055 22.2509L85.0771 22.7411ZM87.5368 20.3147C88.6404 19.6992 89.8258 19.392 91.1013 19.392V18.392C89.6567 18.392 88.3035 18.7421 87.0498 19.4413L87.5368 20.3147ZM120.71 30.01V30.51H121.134L121.203 30.0922L120.71 30.01ZM106.94 30.01V29.51H106.397L106.442 30.0515L106.94 30.01ZM108.368 33.206L108.03 33.5742L108.368 33.206ZM115.236 32.084V31.584H114.925L114.788 31.8631L115.236 32.084ZM120.37 32.084L120.849 32.2277L121.042 31.584H120.37V32.084ZM117.242 36.572L117.542 36.972L117.546 36.9692L117.242 36.572ZM106.668 37.116L106.42 37.5502L106.428 37.5547L106.668 37.116ZM103.302 33.682L102.862 33.9191L102.865 33.9242L103.302 33.682ZM103.302 23.448L102.862 23.2109L103.302 23.448ZM106.634 20.048L106.877 20.4851H106.877L106.634 20.048ZM116.358 20.014L116.118 20.4524L116.121 20.454L116.358 20.014ZM119.656 23.312L119.216 23.5495L119.221 23.5578L119.656 23.312ZM115.916 26.814V27.314H116.426L116.416 26.8047L115.916 26.814ZM114.59 23.89L114.262 24.2676L114.268 24.2725L114.59 23.89ZM108.436 23.856L108.768 24.2303L108.768 24.2297L108.436 23.856ZM106.974 26.814L106.479 26.7433L106.398 27.314H106.974V26.814ZM120.346 28.174C120.346 28.8325 120.302 29.4164 120.217 29.9278L121.203 30.0922C121.3 29.5156 121.346 28.8755 121.346 28.174H120.346ZM120.71 29.51H106.94V30.51H120.71V29.51ZM106.442 30.0515C106.564 31.5104 107.081 32.7023 108.03 33.5742L108.707 32.8378C107.978 32.1684 107.544 31.2296 107.439 29.9685L106.442 30.0515ZM108.03 33.5742C108.968 34.4363 110.123 34.862 111.462 34.862V33.862C110.353 33.862 109.446 33.5171 108.707 32.8378L108.03 33.5742ZM111.462 34.862C112.419 34.862 113.269 34.656 113.99 34.2206C114.713 33.7843 115.275 33.1367 115.685 32.3049L114.788 31.8631C114.449 32.5499 114.009 33.0414 113.473 33.3644C112.937 33.6883 112.274 33.862 111.462 33.862V34.862ZM115.236 32.584H120.37V31.584H115.236V32.584ZM119.891 31.9403C119.378 33.6502 118.398 35.0584 116.939 36.1748L117.546 36.9692C119.169 35.7283 120.274 34.1445 120.849 32.2277L119.891 31.9403ZM116.942 36.172C115.501 37.2528 113.719 37.806 111.564 37.806V38.806C113.898 38.806 115.901 38.2032 117.542 36.972L116.942 36.172ZM111.564 37.806C109.826 37.806 108.278 37.4266 106.908 36.6773L106.428 37.5547C107.96 38.3921 109.675 38.806 111.564 38.806V37.806ZM106.916 36.6819C105.57 35.9124 104.512 34.835 103.74 33.4398L102.865 33.9242C103.724 35.4756 104.911 36.6876 106.42 37.5501L106.916 36.6819ZM103.742 33.445C102.994 32.0548 102.612 30.4385 102.612 28.582H101.612C101.612 30.5788 102.024 32.3625 102.862 33.9191L103.742 33.445ZM102.612 28.582C102.612 26.7017 102.994 25.0743 103.742 23.685L102.862 23.2109C102.023 24.7683 101.612 26.5636 101.612 28.582H102.612ZM103.742 23.685C104.492 22.2937 105.535 21.2308 106.877 20.4851L106.391 19.6109C104.878 20.4519 103.699 21.6556 102.862 23.2109L103.742 23.685ZM106.877 20.4851C108.221 19.7384 109.779 19.358 111.564 19.358V18.358C109.632 18.358 107.903 18.7709 106.391 19.6109L106.877 20.4851ZM111.564 19.358C113.281 19.358 114.794 19.7267 116.118 20.4524L116.599 19.5756C115.111 18.76 113.429 18.358 111.564 18.358V19.358ZM116.121 20.454C117.463 21.1784 118.492 22.2073 119.216 23.5495L120.096 23.0745C119.279 21.5607 118.11 20.391 116.596 19.574L116.121 20.454ZM119.221 23.5578C119.966 24.8783 120.346 26.4121 120.346 28.174H121.346C121.346 26.2639 120.933 24.5564 120.092 23.0662L119.221 23.5578ZM116.416 26.8047C116.391 25.4507 115.894 24.3346 114.912 23.5075L114.268 24.2725C115.009 24.8961 115.396 25.7293 115.416 26.8233L116.416 26.8047ZM114.918 23.5125C113.957 22.6779 112.783 22.268 111.428 22.268V23.268C112.566 23.268 113.501 23.6061 114.262 24.2675L114.918 23.5125ZM111.428 22.268C110.138 22.268 109.019 22.6688 108.104 23.4823L108.768 24.2297C109.485 23.5925 110.361 23.268 111.428 23.268V22.268ZM108.105 23.4817C107.205 24.2786 106.674 25.3823 106.479 26.7433L107.469 26.8847C107.637 25.7071 108.081 24.8387 108.768 24.2303L108.105 23.4817ZM106.974 27.314H115.916V26.314H106.974V27.314Z" fill="#38433F"/>
<path d="M13.216 32.96H2.344V38H20.2V33.32L9.4 17.768H20.2V12.728H2.344V17.408L13.216 32.96Z" fill="#EEB53C"/>
<path d="M13.216 32.96L13.6258 32.6735L14.1756 33.46H13.216V32.96ZM2.344 32.96H1.844V32.46H2.344V32.96ZM2.344 38V38.5H1.844V38H2.344ZM20.2 38H20.7V38.5H20.2V38ZM20.2 33.32L20.6107 33.0348L20.7 33.1634V33.32H20.2ZM9.4 17.768L8.98931 18.0532L8.44404 17.268H9.4V17.768ZM20.2 17.768H20.7V18.268H20.2V17.768ZM20.2 12.728V12.228H20.7V12.728H20.2ZM2.344 12.728H1.844V12.228H2.344V12.728ZM2.344 17.408L1.93421 17.6945L1.844 17.5654V17.408H2.344ZM13.216 33.46H2.344V32.46H13.216V33.46ZM2.844 32.96V38H1.844V32.96H2.844ZM2.344 37.5H20.2V38.5H2.344V37.5ZM19.7 38V33.32H20.7V38H19.7ZM19.7893 33.6052L8.98931 18.0532L9.81068 17.4828L20.6107 33.0348L19.7893 33.6052ZM9.4 17.268H20.2V18.268H9.4V17.268ZM19.7 17.768V12.728H20.7V17.768H19.7ZM20.2 13.228H2.344V12.228H20.2V13.228ZM2.844 12.728V17.408H1.844V12.728H2.844ZM2.75379 17.1215L13.6258 32.6735L12.8062 33.2465L1.93421 17.6945L2.75379 17.1215Z" fill="#38433F"/>
<path d="M130.894 34.226H123.074V38H135.654V14.268H130.894V34.226Z" fill="#EEB53C"/>
<path d="M130.894 34.226H131.394V34.726H130.894V34.226ZM123.074 34.226H122.574V33.726H123.074V34.226ZM123.074 38V38.5H122.574V38H123.074ZM135.654 38H136.154V38.5H135.654V38ZM135.654 14.268V13.768H136.154V14.268H135.654ZM130.894 14.268H130.394V13.768H130.894V14.268ZM130.894 34.726H123.074V33.726H130.894V34.726ZM123.574 34.226V38H122.574V34.226H123.574ZM123.074 37.5H135.654V38.5H123.074V37.5ZM135.154 38V14.268H136.154V38H135.154ZM135.654 14.768H130.894V13.768H135.654V14.768ZM131.394 14.268V34.226H130.394V14.268H131.394Z" fill="#38433F"/>
</svg>
