<svg width="30" height="30" viewBox="0 0 30 30" fill="none" xmlns="http://www.w3.org/2000/svg">
<path d="M30 15C30 23.2843 23.2843 30 15 30C6.71572 30 0 23.2843 0 15C0 6.71572 6.71572 0 15 0C23.2843 0 30 6.71572 30 15Z" fill="#FFE67D"/>
<path d="M22.8351 12.0457L20.7035 17.9023L19.1232 22.2443L17.359 27.0914C17.0373 27.9752 16.0599 28.431 15.1761 28.1092C15.0934 28.0792 15.0146 28.0433 14.9397 28.0024C14.8677 28.0412 14.7923 28.0754 14.7132 28.1042C13.8293 28.4258 12.852 27.9701 12.5303 27.0863L7.05415 12.0406C6.75286 11.2128 7.17965 10.2975 8.00747 9.99622L8.21049 9.92233C9.03831 9.62105 9.9536 10.0478 10.2549 10.8757L12.3865 16.7323L13.2968 19.2334V10.1281C13.2968 9.2471 14.011 8.53296 14.8919 8.53296H15.1079C15.9889 8.53296 16.703 9.2471 16.703 10.1281V16.3605V18.9342L19.6342 10.8808C19.9355 10.0529 20.8508 9.62614 21.6786 9.92743L21.8816 10.0013C22.7096 10.3026 23.1364 11.2179 22.8351 12.0457Z" fill="#B9783D"/>
<path d="M22.4053 10.3635C21.7686 10.4214 21.191 10.8367 20.9578 11.4774L15.5186 26.4215C15.3792 26.8042 15.3868 27.2041 15.5108 27.561C15.5786 27.6058 15.6498 27.6461 15.7239 27.6809C15.6782 27.7024 15.6312 27.7214 15.5835 27.7389C15.6656 27.9104 15.7758 28.0686 15.9114 28.2052C15.6696 28.2271 15.4194 28.1978 15.1761 28.1092C15.0933 28.0791 15.0143 28.0432 14.9393 28.0022C14.8674 28.0409 14.7922 28.0754 14.7133 28.1042C13.8294 28.4258 12.8521 27.9701 12.5304 27.0863L7.0912 12.1422C6.76952 11.2583 7.22521 10.281 8.10909 9.95931C8.35237 9.87077 8.60263 9.84142 8.84445 9.86339C8.39386 10.317 8.21837 11.0065 8.45152 11.6471L13.297 24.9599V10.236C13.297 9.29544 14.0595 8.53296 15.0001 8.53296C15.2589 8.53296 15.5042 8.59097 15.7239 8.69433C15.1453 8.96644 14.7446 9.55437 14.7446 10.236V24.3153L19.5975 10.9822C19.9191 10.0983 20.8965 9.64267 21.7803 9.96435C22.0236 10.0529 22.2342 10.1913 22.4053 10.3635Z" fill="#965028"/>
<path d="M18.296 2.01076L17.7081 4.09605L16.8288 6.74543C16.3594 6.629 15.7135 6.55705 15.0001 6.55705C14.2867 6.55705 13.6408 6.62906 13.1714 6.74543L12.3024 4.12711L11.799 2.01076C11.6665 1.61139 11.8101 1.16865 12.1583 0.932402C13.0255 0.343945 13.8731 0.146484 15.0001 0.146484C16.1271 0.146484 17.0695 0.343945 17.9367 0.932402C18.2849 1.16871 18.4285 1.61145 18.296 2.01076ZM24.5655 2.79785C24.577 2.76545 24.5713 2.7293 24.5626 2.69607C24.5219 2.53951 24.6241 2.41113 24.4923 2.50488L21.0499 5.09766C20.6826 5.35898 20.2585 5.52727 20.0426 5.89682C19.5431 6.75217 19.4686 7.8235 19.9096 8.76914C20.2963 9.59836 21.0033 10.1759 21.8146 10.4232C22.5201 10.6382 23.3044 10.6034 24.0255 10.2672C24.5373 10.0285 24.9852 9.68262 25.2611 9.22594C25.5974 8.66936 25.7268 8.12244 25.7325 7.58812C25.7523 5.73686 24.0623 4.22273 24.5655 2.79785ZM5.33213 2.34375C4.95127 3.73535 4.73084 5.69777 5.14967 7.43092C5.231 7.76742 5.32469 8.08324 5.42805 8.36719C6.06362 10.1134 6.94305 10.3221 8.50516 11.0473C9.23565 9.48762 9.77524 8.76252 9.13961 7.01631C9.03432 6.72703 8.91157 6.41291 8.74235 6.10272C7.86631 4.49707 6.66514 3.31055 5.33213 2.34375Z" fill="#80391B"/>
<path d="M18.4001 2.01076L17.6564 4.25162C17.377 4.21096 17.1536 3.9999 17.0937 3.72703V2.31041C17.0937 1.936 16.7902 1.63254 16.4158 1.63254H16.3644C15.99 1.63254 15.6865 1.93605 15.6865 2.31041V2.43193C15.6183 2.73416 15.3486 2.9601 15.0258 2.9601H14.9743C14.6515 2.9601 14.3818 2.73422 14.3136 2.43193V2.31041C14.3136 1.936 14.01 1.63254 13.6357 1.63254H13.5842C13.2099 1.63254 12.9064 1.93605 12.9064 2.31041V3.72721C12.8465 4.00002 12.6231 4.21102 12.3437 4.25168L11.6 2.01082C11.4675 1.61145 11.6111 1.16871 11.9593 0.932461C12.8265 0.343945 13.873 0 15 0C16.127 0 17.1736 0.343945 18.0408 0.932402C18.389 1.16871 18.5326 1.61145 18.4001 2.01076Z" fill="#FF5A5F"/>
<path d="M25.7255 7.76555C25.566 7.8733 25.3593 7.90635 25.1646 7.83545C24.8856 7.73391 24.7238 7.45336 24.761 7.17065L24.8073 7.04367C24.9247 6.721 24.7583 6.36416 24.4357 6.24674C24.113 6.12932 23.7561 6.29567 23.6387 6.61834L23.0254 8.30344C22.8722 8.54391 22.568 8.65483 22.2889 8.55328C22.0099 8.45174 21.8482 8.17119 21.8853 7.88848L22.4986 6.20338C22.616 5.88071 22.4497 5.52387 22.127 5.40645C21.8043 5.28897 21.4475 5.45537 21.3301 5.77805L21.1421 6.29455C20.9889 6.53502 20.6847 6.64594 20.4056 6.5444C20.1594 6.45481 20.0046 6.22576 19.9971 5.97891C20.2162 5.57614 20.5268 5.21713 20.921 4.93664L24.4294 2.38055C24.5612 2.2868 24.746 2.35407 24.7867 2.51063C24.7954 2.54391 24.8011 2.58001 24.7896 2.61241C24.2703 4.0827 25.8473 5.84543 25.7255 7.76555Z" fill="#6E96DC"/>
<path d="M7.60403 6.67939L7.17366 5.49697C7.05137 5.16105 6.67994 4.98779 6.34397 5.11007C6.00799 5.23236 5.83479 5.60378 5.95707 5.93976L6.38744 7.12218C6.42834 7.41791 6.26065 7.71216 5.96879 7.81839C5.65356 7.93312 5.30709 7.78763 5.16453 7.49173C4.73299 5.7515 4.63285 3.43072 5.25172 2.10925C6.57524 2.72373 7.99033 4.56591 8.77836 6.17642C8.8594 6.49476 8.68748 6.82886 8.37225 6.94359C8.08039 7.04982 7.76276 6.93222 7.60403 6.67939Z" fill="#3CAF96"/>
<path d="M22.0421 17.738L21.0426 28.732C19.1938 29.5467 17.15 30 14.9999 30C12.8499 30 10.806 29.5467 8.95729 28.7319L7.95785 17.738C7.92879 17.4183 8.18051 17.1427 8.50149 17.1427H21.4984C21.8194 17.1427 22.0711 17.4183 22.0421 17.738Z" fill="#9BB9C3"/>
<path d="M21.1156 27.929L21.0426 28.7319C19.1938 29.5467 17.15 30 14.9999 30C12.8499 30 10.806 29.5467 8.95729 28.7319L7.95785 17.738C7.92879 17.4183 8.18051 17.1427 8.50149 17.1427H9.96246C9.96193 17.1902 9.96088 17.2375 9.96088 17.2851C9.96088 23.2718 14.1582 28.125 19.3359 28.125C19.9445 28.125 20.5393 28.0571 21.1156 27.929Z" fill="#87A0AF"/>
<path d="M23.4388 10.3867C23.4242 10.4268 23.4087 10.4664 23.3928 10.5059L23.3951 10.5068L22.2301 13.7075V13.7074L22.2137 13.7527L19.0129 12.5878L19.4084 11.5013L20.1944 9.3418L20.1968 9.34268C20.2099 9.30219 20.2235 9.26188 20.2381 9.2218C20.3185 9.00084 21.1002 9.08252 21.9841 9.4042C22.8679 9.72582 23.5192 10.1657 23.4388 10.3867ZM10.7675 12.2838L9.60249 9.08311L9.60015 9.08399C9.58702 9.0435 9.57337 9.00318 9.55884 8.96311C9.47839 8.74215 8.69669 8.82377 7.8128 9.14551C6.92892 9.46725 6.27759 9.90717 6.35804 10.1281C6.37263 10.1682 6.38815 10.2078 6.40409 10.2473L6.40169 10.2482L7.18772 12.4077L7.58317 13.4942L10.7839 12.3292L10.7675 12.2838ZM16.9102 6.27729C16.4355 6.14855 15.7555 6.06787 15 6.06787C14.2444 6.06787 13.5645 6.14855 13.0897 6.27729C12.9818 6.30658 12.9154 6.4151 12.9361 6.52502L13.2737 8.31441L13.2968 10.5186V11.6748H16.703V11.6267L16.7261 8.31441L17.0637 6.52502C17.0844 6.4151 17.0181 6.30652 16.9102 6.27729Z" fill="#FFF5AF"/>
<path d="M22.4368 11.1485L22.4334 11.1579C22.3573 11.367 22.1318 11.4788 21.918 11.4168C21.8814 11.4062 21.8448 11.3943 21.8085 11.381L21.1022 11.124L20.9355 11.5819L21.6418 11.839C21.6627 11.8466 21.6837 11.8537 21.7047 11.8605C21.9347 11.9343 22.0615 12.1796 21.9789 12.4066L21.9755 12.4159C21.8994 12.625 21.6739 12.7368 21.4601 12.6749C21.4235 12.6642 21.3869 12.6524 21.3505 12.6391L20.6443 12.3821L20.3873 13.0881L19.0131 12.5879L19.4086 11.5015L19.4368 11.4241L19.728 10.6238L20.1946 9.34192L20.197 9.3428C20.2101 9.30231 20.2237 9.262 20.2383 9.22192C20.3187 9.00097 21.1004 9.08265 21.9843 9.40433C22.2303 9.49386 22.4581 9.59253 22.6573 9.69308C22.0939 9.56083 21.6705 9.56259 21.6125 9.72208C21.5979 9.76216 21.5843 9.80253 21.5712 9.84296L21.5688 9.84208L21.3934 10.3238L22.0997 10.5809C22.1206 10.5885 22.1416 10.5957 22.1626 10.6024C22.3926 10.6762 22.5194 10.9215 22.4368 11.1485ZM9.73879 11.449C9.65617 11.222 9.40135 11.1156 9.17764 11.2069C9.15725 11.2152 9.13656 11.2233 9.11564 11.2309L8.4093 11.4879L8.24266 11.03L8.94895 10.773C8.98533 10.7597 9.02096 10.7454 9.05588 10.73C9.25943 10.64 9.36033 10.4094 9.28422 10.2003L9.28082 10.191C9.1982 9.96395 8.94338 9.85755 8.71973 9.9489C8.69934 9.95728 8.67865 9.96524 8.65773 9.9728L7.95145 10.2299L7.77613 9.7481L7.77853 9.74722C7.7626 9.70778 7.74707 9.66811 7.73248 9.62804C7.67447 9.46854 7.99768 9.19503 8.51424 8.93423C8.29697 8.98521 8.05902 9.0561 7.81305 9.14563C6.92916 9.46731 6.27783 9.90729 6.35828 10.1283C6.37287 10.1683 6.3884 10.2079 6.40434 10.2474L6.40193 10.2483L6.86852 11.5302L7.01752 11.9396L7.18791 12.4078L7.58336 13.4942L8.95756 12.9941L8.70062 12.2881L9.40691 12.031C9.4433 12.0178 9.47893 12.0034 9.51385 11.988C9.7174 11.898 9.8183 11.6675 9.74219 11.4583L9.73879 11.449ZM15.5775 8.7319C15.5554 8.73278 15.5333 8.73319 15.511 8.73319H14.7594V7.67136C14.7533 7.67159 14.4477 6.08276 14.4477 6.08276C13.9162 6.11153 13.4455 6.18103 13.0899 6.27741C12.982 6.30671 12.9156 6.41522 12.9363 6.52515L13.2739 8.31454L13.297 9.58479V10.4363V10.5187V11.6749H14.7594V11.2871V10.9236H15.511C15.5498 10.9236 15.5881 10.9223 15.6262 10.9197C15.8483 10.9048 16.022 10.7226 16.022 10.5001V10.4902C16.022 10.2487 15.8189 10.0615 15.5775 10.0708C15.5554 10.0717 15.5333 10.0721 15.511 10.0721H14.7594V9.58485H15.511C15.5498 9.58485 15.5881 9.58356 15.6262 9.58099C15.8483 9.56604 16.022 9.38388 16.022 9.16134V9.15149C16.022 8.90974 15.8189 8.72259 15.5775 8.7319Z" fill="#E6B464"/>
</svg>
