<svg width="392" height="392" viewBox="0 0 392 392" fill="none" xmlns="http://www.w3.org/2000/svg">
<g clip-path="url(#clip0)" filter="url(#filter0_d)">
<path d="M196 384C302.039 384 388 298.039 388 192C388 85.9613 302.039 0 196 0C89.9613 0 4 85.9613 4 192C4 298.039 89.9613 384 196 384Z" fill="#E05B49"/>
<path opacity="0.1" d="M86 108.59V275.43L194.534 383.964C195.025 383.968 195.509 384.001 196 384.001C302.039 384.001 388 298.04 388 192.001C388 191.516 387.967 191.039 387.963 190.554L306 108.59H86Z" fill="black"/>
<path d="M306 108.56H86V275.412H306V108.56Z" fill="white"/>
<path d="M290.8 123.756H101.16V260.236H290.8V123.756Z" fill="#44C4A1"/>
<path d="M101.178 230.469L157.55 174.096L243.673 260.22L101.178 260.243V230.469Z" fill="#FCD462"/>
<path d="M243.673 260.243H270.344L194.315 210.861L243.673 260.243Z" fill="#DC8744"/>
<path d="M290.818 181.134L249.342 151.407L194.315 210.861L270.344 260.243H290.818V181.134Z" fill="#F6C358"/>
<path d="M134.62 160.46C141.524 160.46 147.12 154.864 147.12 147.96C147.12 141.056 141.524 135.46 134.62 135.46C127.717 135.46 122.12 141.056 122.12 147.96C122.12 154.864 127.717 160.46 134.62 160.46Z" fill="white"/>
</g>
<defs>
<filter id="filter0_d" x="0" y="0" width="392" height="392" filterUnits="userSpaceOnUse" color-interpolation-filters="sRGB">
<feFlood flood-opacity="0" result="BackgroundImageFix"/>
<feColorMatrix in="SourceAlpha" type="matrix" values="0 0 0 0 0 0 0 0 0 0 0 0 0 0 0 0 0 0 127 0"/>
<feOffset dy="4"/>
<feGaussianBlur stdDeviation="2"/>
<feColorMatrix type="matrix" values="0 0 0 0 0 0 0 0 0 0 0 0 0 0 0 0 0 0 0.25 0"/>
<feBlend mode="normal" in2="BackgroundImageFix" result="effect1_dropShadow"/>
<feBlend mode="normal" in="SourceGraphic" in2="effect1_dropShadow" result="shape"/>
</filter>
<clipPath id="clip0">
<rect width="384" height="384" fill="white" transform="translate(4)"/>
</clipPath>
</defs>
</svg>
