<svg width="30" height="30" viewBox="0 0 30 30" fill="none" xmlns="http://www.w3.org/2000/svg">
<path d="M15 30C23.2843 30 30 23.2843 30 15C30 6.71573 23.2843 0 15 0C6.71573 0 0 6.71573 0 15C0 23.2843 6.71573 30 15 30Z" fill="#FFE670"/>
<path d="M29.9718 15.9108L25.4197 11.3587L15.0001 3.45459L4.58057 11.3587L6.0143 13.2488L7.53469 14.8023V21.7487H5.58609V23.9454L11.1378 29.497C12.3703 29.8245 13.6646 30 15.0001 30C22.9785 30 29.5008 23.7709 29.9718 15.9108Z" fill="#FEC000"/>
<path d="M22.4654 21.9626H7.53442V11.9012L14.9999 6.23804L22.4654 11.9012V21.9626Z" fill="white"/>
<path d="M22.4654 11.901V21.9627H15V6.23792L22.4654 11.901Z" fill="#9CFDFF"/>
<path d="M17.2923 15.0071H12.7085V21.9622H17.2923V15.0071Z" fill="#0088FF"/>
<path d="M17.2916 15.0071H15V21.9627H17.2916V15.0071Z" fill="#004EB1"/>
<path d="M24.4136 21.7489H5.58569V23.9455H24.4136V21.7489Z" fill="#00E8F2"/>
<path d="M24.4143 21.7489H15V23.9456H24.4143V21.7489Z" fill="#00B7BE"/>
<path d="M23.9859 13.2488L15.0001 6.43227L6.0143 13.2488L4.58057 11.3587L15.0001 3.45459L25.4197 11.3587L23.9859 13.2488Z" fill="#E02424"/>
<path d="M25.4197 11.359L23.9859 13.2487L22.4654 12.0955L15 6.43245V3.45471L25.4197 11.359Z" fill="#990011"/>
</svg>
