<svg width="376" height="380" viewBox="0 0 376 380" fill="none" xmlns="http://www.w3.org/2000/svg">
<g clip-path="url(#clip0)">
<path d="M168.322 340.389C131.641 340.389 101.785 310.197 101.785 273.102V47.7975L26.1562 65.307C7.46321 70.2787 -3.74513 89.7682 1.19972 108.846L66.0447 353.687C70.3503 369.521 84.7377 380 100.174 380C103.069 380 106.013 379.635 108.926 378.861L266.731 340.389H168.322Z" fill="#B0BEC5"/>
<path d="M375.756 43.539V273.102C375.756 297.166 356.498 316.641 332.703 316.641H168.321C152.197 316.641 138.107 307.617 130.749 294.317C127.303 288.142 125.268 280.86 125.268 273.102V43.539C125.268 19.4721 144.526 0 168.321 0H332.703C356.498 0 375.756 19.4721 375.756 43.539Z" fill="#ECEFF1"/>
<path d="M234.858 110.823C234.858 128.312 220.84 142.488 203.546 142.488C186.255 142.488 172.234 128.312 172.234 110.823C172.234 93.3368 186.255 79.161 203.546 79.161C220.84 79.161 234.858 93.3368 234.858 110.823Z" fill="#FFC107"/>
<path d="M375.756 189.033V273.102C375.756 297.166 356.498 316.641 332.703 316.641H168.321C152.197 316.641 138.108 307.617 130.749 294.317L285.894 137.421C296.538 126.657 314.073 126.657 324.719 137.421L375.756 189.033Z" fill="#388E3C"/>
<path d="M329.727 316.641H168.321C152.197 316.641 138.107 307.617 130.749 294.317C127.303 288.142 125.268 280.86 125.268 273.102V236.529L168.479 192.834C179.123 182.067 196.657 182.067 207.304 192.834L329.727 316.641Z" fill="#4CAF50"/>
</g>
<defs>
<clipPath id="clip0">
<rect width="375.76" height="380" fill="white"/>
</clipPath>
</defs>
</svg>
