<svg width="100" height="100" viewBox="0 0 100 100" fill="none" xmlns="http://www.w3.org/2000/svg">
<g clip-path="url(#clip0)">
<path d="M99.9764 92.9071L92.1202 49.6236C92.0418 49.1916 91.7739 48.8174 91.3899 48.6039L71.616 37.6058C71.3594 37.4628 71.0717 37.406 70.7891 37.4279L74.3865 83.8358L74.266 83.8897L97.9309 94.5063C98.1235 94.5924 98.3282 94.635 98.5319 94.635C98.8543 94.635 99.1739 94.529 99.4366 94.3233C99.8659 93.9881 100.073 93.4428 99.9764 92.9071Z" fill="#44C868"/>
<path d="M49.9997 48.1196L29.776 37.5862C29.5336 37.4598 29.2649 37.4082 29.0002 37.426C29.0703 37.4217 29.1408 37.4221 29.2108 37.4276L25.6133 83.8355L49.3987 94.5062C49.5907 94.5921 49.7956 94.6349 49.9997 94.6349V48.1196V48.1196Z" fill="#44C868"/>
<path d="M29.211 37.4286C28.9284 37.4067 28.6407 37.4636 28.384 37.6063L8.60995 48.6044C8.22597 48.8179 7.958 49.1919 7.87968 49.6241L0.0236089 92.9076C-0.0736569 93.4432 0.134156 93.9885 0.563258 94.324C0.826345 94.5297 1.14568 94.6357 1.46795 94.6357C1.67166 94.6357 1.87654 94.5934 2.06893 94.507L25.6049 83.9482L29.211 37.4286Z" fill="#4CE166"/>
<path d="M70.7889 37.4282C70.5944 37.4433 70.402 37.495 70.2237 37.588L50 48.1212V94.6365C50 94.6365 50 94.6365 50.0002 94.6365C50.2043 94.6365 50.4094 94.594 50.6012 94.5078L74.3866 83.8371L70.7889 37.4282Z" fill="#4CE166"/>
<path d="M5.49825 62.7405L3.90234 71.5333L27.534 59.0516L28.0827 51.9736L28.1737 50.7998L5.49825 62.7405Z" fill="#FFDB56"/>
<path d="M27.7473 56.3069L27.5346 59.0514L3.90291 71.5331L0.0236089 92.9068C-0.0736569 93.4423 0.134156 93.9876 0.563258 94.3232C0.826345 94.5288 1.14568 94.6349 1.46795 94.6349C1.67166 94.6349 1.87654 94.5925 2.06893 94.5062L25.6049 83.9474L27.7473 56.3069Z" fill="#A8EEFC"/>
<path d="M50.0065 53.923L28.1748 50.8013L27.5352 59.053L50.0006 93.1701V80.7642L36.5949 59.6552L50.0065 61.2593V53.923Z" fill="#FFBB24"/>
<path d="M89.8334 47.7392L80.3344 42.4558L71.3418 44.557L71.4543 46.0093L71.8984 51.7386L89.8334 47.7392Z" fill="#FFBB24"/>
<path d="M72.6957 62.026L71.8442 51.0398L71.3416 44.5557L50.0059 53.9213V61.2576L63.9426 55.1971L72.6957 62.026Z" fill="#FFDB56"/>
<path d="M99.9766 92.907L98.0034 82.0347L71.8984 51.7375L72.6961 62.0262L99.4676 94.296C99.8747 93.9587 100.071 93.429 99.9766 92.907Z" fill="#FFBB24"/>
<path d="M50.0938 5.3645C38.7729 5.3645 29.5625 14.5673 29.5625 25.879C29.5625 32.8763 32.8846 40.3888 39.4367 48.2076C44.2491 53.9503 48.9959 57.6439 49.1957 57.7984C49.4602 58.0029 49.777 58.105 50.094 58.105C50.4108 58.105 50.7278 58.0029 50.9922 57.7984C51.1918 57.6439 55.9389 53.9503 60.7512 48.2076C67.3034 40.3888 70.6255 32.8765 70.6255 25.879C70.6251 14.5673 61.4147 5.3645 50.0938 5.3645ZM57.6973 25.8788C57.6973 30.0745 54.293 33.4761 50.0938 33.4761C45.8946 33.4761 42.4903 30.0747 42.4903 25.8788C42.4903 21.6829 45.8946 18.2815 50.0938 18.2815C54.293 18.2815 57.6973 21.6831 57.6973 25.8788Z" fill="#FF4A4A"/>
<path d="M50.0936 5.3645C49.1963 5.3645 48.3125 5.42271 47.4453 5.53481C57.5201 6.83697 65.3286 15.4637 65.3286 25.879C65.3286 32.8763 62.0065 40.3888 55.4543 48.2076C52.3596 51.9005 49.2941 54.7441 47.4455 56.346C48.4717 57.2351 49.1244 57.7433 49.1955 57.7984C49.46 58.0029 49.7768 58.105 50.0938 58.105C50.4106 58.105 50.7275 58.0029 50.992 57.7984C51.1916 57.6439 55.9387 53.9503 60.751 48.2076C67.3032 40.3888 70.6252 32.8765 70.6252 25.879C70.6249 14.5673 61.4145 5.3645 50.0936 5.3645Z" fill="#E7343F"/>
<path d="M50.6012 94.5063L59.4459 90.5383L50 80.7627V94.635C50 94.635 50 94.635 50.0002 94.635C50.2043 94.635 50.4092 94.5926 50.6012 94.5063Z" fill="#FFDB56"/>
<path d="M92.1203 49.6241C92.042 49.192 91.7741 48.8178 91.3901 48.6043L89.8334 47.7385L71.8984 51.7379L98.0032 82.0351L92.1203 49.6241Z" fill="#1EA4E9"/>
<path d="M49.9998 94.636C50 94.636 50 94.636 49.9998 94.636V93.1695L27.5346 59.0525L25.6133 83.8367L49.3987 94.5074C49.5907 94.5936 49.7955 94.636 49.9998 94.636Z" fill="#1EA4E9"/>
</g>
<defs>
<clipPath id="clip0">
<rect width="100" height="100" fill="white"/>
</clipPath>
</defs>
</svg>
