<svg width="30" height="30" viewBox="0 0 30 30" fill="none" xmlns="http://www.w3.org/2000/svg">
<path d="M15 30C23.2843 30 30 23.2843 30 15C30 6.71573 23.2843 0 15 0C6.71573 0 0 6.71573 0 15C0 23.2843 6.71573 30 15 30Z" fill="#D21372"/>
<path d="M13.4134 14.5453L7.06236 8.19424L6.78463 8.47197L5.16129 6.84863L5.03678 10.0954H1.91455L3.53789 11.7187L3.26016 11.9964L8.67855 17.4149L4.57523 21.5182L12.9117 29.8546C13.5942 29.9497 14.2911 30 14.9999 30C23.2842 30 29.9999 23.2843 29.9999 15C29.9999 14.0214 29.9051 13.0651 29.7261 12.1388L26.5965 9.00916L13.4134 14.5453Z" fill="#B31061"/>
<path d="M15.5861 21.5181H4.57544V9.00916H15.5861L19.9655 15.4102L15.5861 21.5181Z" fill="#7A3EB4"/>
<path d="M15.5859 9.00916H26.5966V21.5181H15.5859V9.00916Z" fill="#4B1B7A"/>
<path d="M5.95288 10.2244H15.586L16.894 15.2636L15.586 19.7169L7.23163 20.3029H5.95288V10.2244Z" fill="#D2D5F6"/>
<path d="M15.5859 10.2244H23.2853V20.3029H21.9224L15.5859 19.7169V10.2244Z" fill="#B5B9F1"/>
<path d="M24.998 16.3186C25.5061 16.3186 25.9181 15.9066 25.9181 15.3985C25.9181 14.8903 25.5061 14.4784 24.998 14.4784C24.4898 14.4784 24.0779 14.8903 24.0779 15.3985C24.0779 15.9066 24.4898 16.3186 24.998 16.3186Z" fill="#7A3EB4"/>
<path d="M7.06246 8.19421L6.27672 10.0953L7.06246 11.9964L5.16139 11.2107L3.26025 11.9964L4.046 10.0953L3.26025 8.19421L5.16139 8.97996L7.06246 8.19421Z" fill="#FFDD55"/>
<path d="M8.40797 10.0953L6.11367 11.0478L5.16129 13.3421L4.20885 11.0478L1.91455 10.0953L4.20885 9.14293L5.16129 6.84863L6.11367 9.14293L8.40797 10.0953Z" fill="#FFEA98"/>
<path d="M7.91431 16.2375L7.6755 16.7733L7.22619 16.573L7.465 16.0373L7.91431 16.2375Z" fill="#00BAA0"/>
<path d="M7.55249 12.9375L8.42413 13.3263L7.5996 14.0036L7.55249 12.9375Z" fill="#D21372"/>
<path d="M7.23168 14.7184L6.93432 15.0006L6.92301 15.4105L6.64076 15.1132L6.23096 15.1018L6.52832 14.8196L6.53963 14.4098L6.82187 14.7071L7.23168 14.7184Z" fill="#4B1B7A"/>
<path d="M20.2637 11.8187L19.9324 11.2887L20.377 11.0109L20.7082 11.5409L20.2637 11.8187Z" fill="#00BAA0"/>
<path d="M22.2367 13.6473L21.3742 14.1856L21.2671 13.054L22.2367 13.6473Z" fill="#D21372"/>
<path d="M21.5136 12.6877L21.4414 12.2569L21.0862 12.0029L21.5169 11.9307L21.771 11.5754L21.8432 12.0062L22.1984 12.2602L21.7677 12.3325L21.5136 12.6877Z" fill="#4B1B7A"/>
<path d="M8.8335 14.2103C8.8335 12.6049 10.1349 11.3035 11.7403 11.3035L12.5784 14.2103L11.7403 16.8922H8.8335V14.2103Z" fill="#736E6E"/>
<path d="M11.7405 11.3035C13.3459 11.3035 14.6473 12.6049 14.6473 14.2103V16.8922H11.7405V11.3035Z" fill="#5A5555"/>
<path d="M13.3391 14.5275L11.7404 17.558C10.1376 17.558 9.22119 15.9188 9.22119 14.5275C9.22119 13.1362 10.3491 12.0083 11.7404 12.0083L13.3391 14.5275Z" fill="#FFDDCE"/>
<path d="M14.2597 14.5275C14.2597 15.9188 13.3433 17.558 11.7405 17.558V12.0083C13.1318 12.0083 14.2597 13.1362 14.2597 14.5275Z" fill="#FFCCBD"/>
<path d="M11.7404 18.5975H10.7419V16.8922H11.7404L12.2995 17.7449L11.7404 18.5975Z" fill="#FFDDCE"/>
<path d="M11.7405 16.8922H12.739V18.5976H11.7405V16.8922Z" fill="#FFCCBD"/>
<path d="M11.7404 20.3031H7.32764C7.69555 19.6044 8.29485 19.0553 9.02293 18.7499L10.7419 18.0287L11.7404 18.5977L12.3419 19.5265L11.7404 20.3031Z" fill="#00DDC1"/>
<path d="M16.1532 20.303H11.7405V18.5976L12.739 18.0286L14.4579 18.7497C15.1861 19.0552 15.7854 19.6043 16.1532 20.303Z" fill="#00BAA0"/>
<path d="M10.4292 15.1093C10.5881 15.1093 10.7169 14.9806 10.7169 14.8217C10.7169 14.6628 10.5881 14.5341 10.4292 14.5341C10.2704 14.5341 10.1416 14.6628 10.1416 14.8217C10.1416 14.9806 10.2704 15.1093 10.4292 15.1093Z" fill="#736E6E"/>
<path d="M13.0516 15.1093C13.2104 15.1093 13.3392 14.9806 13.3392 14.8217C13.3392 14.6628 13.2104 14.5341 13.0516 14.5341C12.8927 14.5341 12.7639 14.6628 12.7639 14.8217C12.7639 14.9806 12.8927 15.1093 13.0516 15.1093Z" fill="#736E6E"/>
<path d="M12.6815 12.9397L11.7405 11.4166C10.2727 11.4166 9.06 12.5061 8.86523 13.9204H11.7405L12.6815 12.9397Z" fill="#736E6E"/>
<path d="M14.6157 13.9204C14.421 12.5061 13.2083 11.4166 11.7405 11.4166V13.9204H14.6157Z" fill="#5A5555"/>
<path d="M11.7403 15.8575H10.7993C10.7993 16.3773 11.2206 16.7986 11.7403 16.7986L11.8846 16.3895L11.7403 15.8575Z" fill="#D21372"/>
<path d="M11.7405 16.7986C12.2602 16.7986 12.6815 16.3773 12.6815 15.8575H11.7405V16.7986Z" fill="#B31061"/>
<path d="M14.6028 19.3894H17.5096L18.7692 15.3467L17.5096 11.304C15.8815 11.2768 14.6028 12.5885 14.6028 14.2104V19.3894Z" fill="#FFEA98"/>
<path d="M18.5083 18.0287V19.3895H20.4166V14.2583C20.4166 12.6643 19.1036 11.3307 17.5098 11.3041L18.5083 18.0287Z" fill="#FFDD55"/>
<path d="M19.1084 14.5276L17.5097 17.5581C15.9069 17.5581 14.9905 15.9189 14.9905 14.5276C14.9905 13.1363 16.1184 12.0084 17.5097 12.0084L19.1084 14.5276Z" fill="#FFDDCE"/>
<path d="M17.5097 18.5976H16.5112V16.8923H17.5097L18.0688 17.745L17.5097 18.5976Z" fill="#FFDDCE"/>
<path d="M20.0289 14.5276C20.0289 15.9189 19.1125 17.5581 17.5098 17.5581V12.0084C18.9011 12.0084 20.0289 13.1363 20.0289 14.5276Z" fill="#FFCCBD"/>
<path d="M17.5096 15.8575H16.5686C16.5686 16.3773 16.9899 16.7986 17.5096 16.7986L17.6539 16.3895L17.5096 15.8575Z" fill="#D21372"/>
<path d="M17.5098 16.7986C18.0295 16.7986 18.4508 16.3773 18.4508 15.8575H17.5098V16.7986Z" fill="#B31061"/>
<path d="M17.5098 16.8923H18.5083V18.5977H17.5098V16.8923Z" fill="#FFCCBD"/>
<path d="M16.1985 15.1095C16.3574 15.1095 16.4862 14.9807 16.4862 14.8218C16.4862 14.663 16.3574 14.5342 16.1985 14.5342C16.0397 14.5342 15.9109 14.663 15.9109 14.8218C15.9109 14.9807 16.0397 15.1095 16.1985 15.1095Z" fill="#736E6E"/>
<path d="M18.8208 15.1095C18.9797 15.1095 19.1085 14.9807 19.1085 14.8218C19.1085 14.663 18.9797 14.5342 18.8208 14.5342C18.662 14.5342 18.5332 14.663 18.5332 14.8218C18.5332 14.9807 18.662 15.1095 18.8208 15.1095Z" fill="#736E6E"/>
<path d="M17.5097 11.4833C16.1199 11.4833 14.7874 12.3649 14.7874 14.8541L17.5097 13.3844L17.78 12.4447L17.5097 11.4833Z" fill="#FFEA98"/>
<path d="M20.2321 14.8541C20.2321 12.4686 18.8995 11.4833 17.5098 11.4833V13.3844L20.2321 14.8541Z" fill="#FFDD55"/>
<path d="M17.5097 18.2931C17.1651 18.2931 16.8207 18.2049 16.5112 18.0286L14.3487 18.6447C13.6079 18.8557 13.0969 19.5326 13.0969 20.3029H17.5097L17.9802 19.3893L17.5097 18.2931Z" fill="white"/>
<path d="M21.9225 20.3029C21.9225 19.5326 21.4116 18.8557 20.6707 18.6447L18.5083 18.0286C18.1988 18.2049 17.8543 18.2931 17.5098 18.2931V20.303H21.9225V20.3029Z" fill="#F5F2F1"/>
</svg>
