<svg width="30" height="30" viewBox="0 0 30 30" fill="none" xmlns="http://www.w3.org/2000/svg">
<path d="M15 30C23.2843 30 30 23.2843 30 15C30 6.71573 23.2843 0 15 0C6.71573 0 0 6.71573 0 15C0 23.2843 6.71573 30 15 30Z" fill="#27E0C9"/>
<path d="M30 15C30 13.0546 29.6295 11.1956 28.9555 9.48985L27.438 7.98938L6.51375 9.64354L4.94385 14.3384L8.44283 17.8364L11.7451 26.0912L15.6394 29.9855C23.6269 29.6504 30 23.0699 30 15Z" fill="#17BFAB"/>
<path d="M12.2267 8.08277C12.2267 8.08277 9.41658 5.80266 8.50803 5.91346C7.59947 6.02426 6.51367 9.19307 6.51367 9.19307C6.51367 9.19307 8.11211 12.0675 8.69008 13.3776L12.2267 8.08277Z" fill="#B56F40"/>
<path d="M9.2531 6.10061C9.2531 6.10061 8.50438 5.50459 7.2305 5.86459C5.68801 6.30053 4.07915 6.99985 3.2709 7.40215C2.06241 8.00373 2.06241 9.14543 2.86848 10.8398C3.4301 12.0204 4.87315 14.9376 5.49565 14.5417C5.79155 14.3536 7.5387 9.44256 7.89899 8.4818C8.19683 7.68762 9.14124 6.43342 9.2531 6.10061Z" fill="#CC8656"/>
<path d="M17.7729 8.08277C17.7729 8.08277 20.5831 5.80266 21.4917 5.91346C22.4002 6.02426 23.486 9.19307 23.486 9.19307C23.486 9.19307 21.8876 12.0675 21.3096 13.3776L17.7729 8.08277Z" fill="#A35D2E"/>
<path d="M20.7466 6.10061C20.7466 6.10061 21.4953 5.50459 22.7692 5.86459C24.3117 6.30053 25.9205 6.99985 26.7288 7.40215C27.9373 8.00373 27.9373 9.14543 27.1312 10.8398C26.5696 12.0204 25.1265 14.9376 24.504 14.5417C24.2081 14.3536 22.461 9.44256 22.1007 8.4818C21.8028 7.68762 20.8584 6.43342 20.7466 6.10061Z" fill="#B56F40"/>
<path d="M21.7627 18.9878C21.6855 19.148 21.6011 19.3151 21.509 19.4902C19.4428 23.4194 20.1893 27.0506 15.0806 27.0506C9.97186 27.0506 10.7183 23.4194 8.65221 19.4902C8.5601 19.3151 8.47566 19.148 8.39844 18.9878C8.39844 18.9878 9.5266 16.4676 10.1302 13.083C10.6527 10.1494 13.6915 7.17824 13.6915 7.17824C14.1505 7.0907 14.6172 7.04834 15.0807 7.04834C15.5441 7.04834 16.0108 7.0907 16.4698 7.17824C16.4698 7.17824 19.425 10.1494 19.9475 13.083C20.551 16.4676 21.7627 18.9878 21.7627 18.9878Z" fill="#FCF0E5"/>
<path d="M21.7629 18.9876C21.6855 19.1482 21.6012 19.3152 21.5092 19.4904C19.4426 23.4197 20.1891 27.0507 15.0803 27.0507C15.0533 27.0507 15.0264 27.0507 15 27.0501V7.04917C15.027 7.04858 15.0533 7.04858 15.0803 7.04858C15.5437 7.04858 16.0107 7.09077 16.4695 7.17808C16.4695 7.17808 19.425 10.1494 19.9477 13.0832C20.5512 16.4675 21.7629 18.9876 21.7629 18.9876Z" fill="#EADDD3"/>
<path d="M14.9999 20.3574C13.512 20.3574 12.2041 20.4487 12.5876 22.1785C12.8356 23.2967 14.4137 24.0954 14.9999 24.0954C15.5861 24.0954 17.1641 23.2967 17.4121 22.1785C17.7957 20.4487 16.4878 20.3574 14.9999 20.3574Z" fill="#70695E"/>
<path d="M17.4123 22.1786C17.1645 23.2966 15.5859 24.0952 15 24.0952V20.3575C16.4877 20.3575 17.7961 20.4484 17.4123 22.1786Z" fill="#5B554A"/>
<path d="M12.8963 17.5118C11.7487 18.2384 9.58785 18.7697 8.3984 18.9877C6.73668 15.5545 8.41604 15.4034 9.01961 12.0189C9.54209 9.08521 11.5613 7.60156 13.772 7.1781C13.9374 9.78224 14.8526 16.2741 12.8963 17.5118Z" fill="#CC8656"/>
<path d="M21.7626 18.9878C20.5731 18.7698 18.4481 18.2612 17.3006 17.5346C15.3442 16.2969 16.2236 9.7823 16.389 7.17822C18.5997 7.60162 20.6189 9.08533 21.1414 12.019C21.745 15.4036 23.4243 15.5546 21.7626 18.9878Z" fill="#B56F40"/>
<path d="M11.6434 15.2797C12.0647 14.9753 12.1594 14.387 11.855 13.9658C11.5506 13.5445 10.9624 13.4497 10.5411 13.7541C10.1198 14.0585 10.0251 14.6468 10.3295 15.0681C10.6339 15.4894 11.2221 15.5841 11.6434 15.2797Z" fill="#5B554A"/>
<path d="M19.4828 15.2763C19.9041 14.9719 19.9988 14.3836 19.6944 13.9623C19.39 13.5411 18.8017 13.4463 18.3805 13.7507C17.9592 14.0551 17.8644 14.6434 18.1688 15.0647C18.4732 15.4859 19.0615 15.5807 19.4828 15.2763Z" fill="#3A352E"/>
</svg>
