<svg width="352" height="350" viewBox="0 0 352 350" fill="none" xmlns="http://www.w3.org/2000/svg">
<g clip-path="url(#clip0)">
<path d="M175.732 47.4833C185.891 47.4833 194.125 39.2827 194.125 29.1666C194.125 19.0506 185.891 10.85 175.732 10.85C165.574 10.85 157.339 19.0506 157.339 29.1666C157.339 39.2827 165.574 47.4833 175.732 47.4833Z" fill="#607D8B"/>
<path d="M351.464 123.958V309.896C351.464 332.062 333.452 350 311.192 350H40.272C36.6109 350 33.0962 349.562 29.8745 348.542C12.5941 344.021 0 328.417 0 309.896V127.604C0 105.438 18.0126 87.5 40.272 87.5H311.192C334.477 87.5 351.464 102.812 351.464 123.958Z" fill="#ECEFF1"/>
<path d="M73.2219 180.367C84.2861 180.367 93.2554 171.435 93.2554 160.417C93.2554 149.399 84.2861 140.467 73.2219 140.467C62.1578 140.467 53.1885 149.399 53.1885 160.417C53.1885 171.435 62.1578 180.367 73.2219 180.367Z" fill="#FFC107"/>
<path d="M334.638 274.138V304.296C334.638 324.144 318.515 340.2 298.584 340.2H70.659C67.3787 340.2 64.2302 339.806 61.3452 338.888L214.247 179.346C223.165 170.465 230.531 170.465 239.435 179.346L334.638 274.138Z" fill="#388E3C"/>
<path d="M223.458 335.635H43.4936C40.6086 335.635 37.8262 335.285 35.2927 334.483C21.6589 330.91 11.73 318.602 11.73 303.99V300.417L92.9183 234.15C100.768 226.333 113.713 226.333 121.563 234.15L223.458 335.635Z" fill="#4CAF50"/>
<path d="M311.192 350H40.272C18.0565 350 0 332.019 0 309.896V127.604C0 105.481 18.0565 87.5 40.272 87.5H311.192C334.521 87.5 351.464 102.842 351.464 123.958V309.896C351.464 332.019 333.408 350 311.192 350ZM40.272 109.375C30.182 109.375 21.9665 117.556 21.9665 127.604V309.896C21.9665 319.944 30.182 328.125 40.272 328.125H311.192C321.282 328.125 329.498 319.944 329.498 309.896V123.958C329.498 110.075 314.238 109.375 311.192 109.375H40.272Z" fill="#5C6864"/>
<path d="M73.2218 189.583C57.0691 189.583 43.9331 176.502 43.9331 160.417C43.9331 144.331 57.0691 131.25 73.2218 131.25C89.3745 131.25 102.511 144.331 102.511 160.417C102.511 176.502 89.3745 189.583 73.2218 189.583ZM73.2218 153.125C69.18 153.125 65.8996 156.406 65.8996 160.417C65.8996 164.427 69.18 167.708 73.2218 167.708C77.2636 167.708 80.544 164.427 80.544 160.417C80.544 156.406 77.2636 153.125 73.2218 153.125Z" fill="#5C6864"/>
<path d="M175.732 58.3333C159.579 58.3333 146.443 45.2521 146.443 29.1667C146.443 13.0813 159.579 0 175.732 0C191.885 0 205.021 13.0813 205.021 29.1667C205.021 45.2521 191.885 58.3333 175.732 58.3333ZM175.732 21.875C171.69 21.875 168.41 25.1563 168.41 29.1667C168.41 33.1771 171.69 36.4583 175.732 36.4583C179.774 36.4583 183.054 33.1771 183.054 29.1667C183.054 25.1563 179.774 21.875 175.732 21.875Z" fill="#5C6864"/>
<path d="M10.983 320.833C8.1713 320.833 5.35959 319.769 3.22151 317.625C-1.06928 313.352 -1.06928 306.425 3.22151 302.152L84.3512 221.36C94.368 211.385 110.667 211.4 120.669 221.36L139.121 239.735L208.828 170.319C218.86 160.344 235.144 160.344 245.146 170.319L348.257 272.985C352.548 277.258 352.548 284.185 348.257 288.458C343.966 292.731 337.01 292.731 332.719 288.458L229.623 185.792C228.188 184.363 225.786 184.363 224.351 185.792L146.883 262.938C142.592 267.21 135.636 267.21 131.345 262.938L105.132 236.833C103.696 235.404 101.295 235.404 99.8596 236.833L18.7299 317.625C16.6065 319.769 13.7947 320.833 10.983 320.833Z" fill="#5C6864"/>
<path d="M303.87 109.375C302.069 109.375 300.268 108.952 298.584 108.019L189.923 48.5187C184.607 45.6166 182.659 38.9666 185.588 33.6583C188.517 28.3645 195.195 26.425 200.511 29.3416L309.172 88.8416C314.487 91.7437 316.435 98.3937 313.506 103.702C311.5 107.319 307.736 109.375 303.87 109.375Z" fill="#5C6864"/>
<path d="M47.594 109.375C43.7133 109.375 39.9643 107.319 37.958 103.702C35.0292 98.4084 36.9769 91.7584 42.2928 88.8417L150.954 29.3417C156.27 26.4396 162.948 28.3792 165.876 33.6584C168.805 38.9521 166.858 45.6021 161.542 48.5188L52.8806 108.019C51.2112 108.952 49.3953 109.375 47.594 109.375Z" fill="#5C6864"/>
</g>
<defs>
<clipPath id="clip0">
<rect width="351.464" height="350" fill="white"/>
</clipPath>
</defs>
</svg>
