<svg width="96" height="16" viewBox="0 0 96 16" fill="none" xmlns="http://www.w3.org/2000/svg">
<path d="M7.99992 1.33337L10.0599 5.50671L14.6666 6.18004L11.3333 9.42671L12.1199 14.0134L7.99992 11.8467L3.87992 14.0134L4.66659 9.42671L1.33325 6.18004L5.93992 5.50671L7.99992 1.33337Z" fill="#FFAD4F" stroke="#FFAD4F" stroke-width="1.5" stroke-linecap="round" stroke-linejoin="round"/>
<path d="M27.9999 1.33337L30.0599 5.50671L34.6666 6.18004L31.3333 9.42671L32.1199 14.0134L27.9999 11.8467L23.8799 14.0134L24.6666 9.42671L21.3333 6.18004L25.9399 5.50671L27.9999 1.33337Z" fill="#FFAD4F" stroke="#FFAD4F" stroke-width="1.5" stroke-linecap="round" stroke-linejoin="round"/>
<path d="M47.9999 1.33337L50.0599 5.50671L54.6666 6.18004L51.3333 9.42671L52.1199 14.0134L47.9999 11.8467L43.8799 14.0134L44.6666 9.42671L41.3333 6.18004L45.9399 5.50671L47.9999 1.33337Z" fill="#FFAD4F" stroke="#FFAD4F" stroke-width="1.5" stroke-linecap="round" stroke-linejoin="round"/>
<path d="M67.9999 0.583374C68.2854 0.583374 68.5461 0.745428 68.6725 1.00141L70.5581 4.82156L74.7751 5.43793C75.0575 5.47921 75.292 5.67721 75.38 5.94872C75.4681 6.22022 75.3944 6.51816 75.1899 6.71731L72.1392 9.68873L72.8591 13.8866C72.9074 14.168 72.7917 14.4524 72.5607 14.6202C72.3298 14.788 72.0235 14.8101 71.7709 14.6772L67.9999 12.6941L64.229 14.6772C63.9763 14.8101 63.6701 14.788 63.4391 14.6202C63.2082 14.4524 63.0925 14.168 63.1407 13.8866L63.8607 9.68873L60.81 6.71731C60.6055 6.51816 60.5318 6.22022 60.6198 5.94872C60.7079 5.67721 60.9424 5.47921 61.2248 5.43793L65.4417 4.82156L67.3274 1.00141C67.4538 0.745428 67.7145 0.583374 67.9999 0.583374Z" fill="#FCF2E7"/>
<path fill-rule="evenodd" clip-rule="evenodd" d="M68.0001 0.583496C67.7147 0.58352 67.454 0.745569 67.3277 1.00153L65.442 4.82168L61.225 5.43805C60.9426 5.47933 60.7081 5.67733 60.6201 5.94884C60.5321 6.22034 60.6058 6.51828 60.8102 6.71743L63.861 9.68885L63.141 13.8867C63.0927 14.1681 63.2084 14.4525 63.4394 14.6203C63.6704 14.7881 63.9766 14.8102 64.2293 14.6773L68.0001 12.6943V0.583496Z" fill="#FFAD4F"/>
<path d="M87.9999 0.583374C88.2854 0.583374 88.5461 0.745428 88.6725 1.00141L90.5581 4.82156L94.7751 5.43793C95.0575 5.47921 95.292 5.67721 95.38 5.94872C95.4681 6.22022 95.3944 6.51816 95.1899 6.71731L92.1392 9.68873L92.8591 13.8866C92.9074 14.168 92.7917 14.4524 92.5607 14.6202C92.3298 14.788 92.0235 14.8101 91.7709 14.6772L87.9999 12.6941L84.229 14.6772C83.9763 14.8101 83.6701 14.788 83.4391 14.6202C83.2082 14.4524 83.0925 14.168 83.1407 13.8866L83.8607 9.68873L80.81 6.71731C80.6055 6.51816 80.5318 6.22022 80.6198 5.94872C80.7079 5.67721 80.9424 5.47921 81.2248 5.43793L85.4417 4.82156L87.3274 1.00141C87.4538 0.745428 87.7145 0.583374 87.9999 0.583374Z" fill="#FCF2E7"/>
</svg>
