<svg width="100" height="100" viewBox="0 0 100 100" fill="none" xmlns="http://www.w3.org/2000/svg">
<g clip-path="url(#clip0)">
<path d="M99.9836 13.9324V61.5559C99.9836 65.0246 97.2024 67.8057 93.7338 67.8057H17.8611C14.3925 67.8057 11.6113 65.0246 11.6113 61.5559V13.9324C11.6113 10.495 14.3925 7.68262 17.8611 7.68262H93.7338C97.2024 7.68262 99.9836 10.495 99.9836 13.9324Z" fill="#6F7070"/>
<path d="M99.9992 19.051H11.5957V29.2007H99.9992V19.051Z" fill="#464646"/>
<path d="M76.9454 10.2419H56.7772C55.0523 10.2419 53.6523 11.6388 53.6523 13.3668C53.6523 15.0949 55.0523 16.4917 56.7772 16.4917H76.9454C78.6703 16.4917 80.0703 15.0949 80.0703 13.3668C80.0703 11.6419 78.6703 10.2419 76.9454 10.2419Z" fill="#787878"/>
<path d="M91.5161 10.2419H86.0507C84.3257 10.2419 82.9258 11.6388 82.9258 13.3668C82.9258 15.0949 84.3257 16.4917 86.0507 16.4917H91.5161C93.2411 16.4917 94.641 15.0949 94.641 13.3668C94.641 11.6419 93.2442 10.2419 91.5161 10.2419Z" fill="#787878"/>
<path d="M35.1139 21.001H19.8769C18.1519 21.001 16.752 22.3978 16.752 24.1259C16.752 25.8539 18.1519 27.2508 19.8769 27.2508H35.1139C36.8388 27.2508 38.2388 25.8539 38.2388 24.1259C38.2388 22.3978 36.842 21.001 35.1139 21.001Z" fill="#3E3E3E"/>
<path d="M49.6888 21.001H44.2265C42.5015 21.001 41.1016 22.3978 41.1016 24.1259C41.1016 25.8539 42.5015 27.2508 44.2265 27.2508H49.6888C51.4137 27.2508 52.8137 25.8539 52.8137 24.1259C52.8137 22.3978 51.4137 21.001 49.6888 21.001Z" fill="#3E3E3E"/>
<g opacity="0.07">
<path opacity="0.07" d="M99.984 49.4623V61.5557C99.984 65.0243 97.2028 67.8055 93.7341 67.8055H86.1719L88.3281 37.8064L99.984 49.4623Z" fill="#010101"/>
</g>
<path d="M82.1474 92.3176H6.2498C2.79679 92.3176 0 89.5208 0 86.0677V38.4349C0 34.985 2.79679 32.1851 6.2498 32.1851H82.1474C85.6004 32.1851 88.3972 34.985 88.3972 38.4349V86.0646C88.3972 89.5176 85.6004 92.3176 82.1474 92.3176Z" fill="#4B9FD8"/>
<path d="M40.3737 32.1851C20.8743 46.9658 7.15603 65.9027 0.062498 86.6833C0.031249 86.4334 0 86.1834 0 85.9021V38.2786C0 35.31 2.06244 32.81 4.8436 32.1851H40.3737Z" fill="#3A9BD6"/>
<path d="M48.0273 92.3174C67.5267 77.5366 81.2451 58.5997 88.3386 37.8191C88.3698 38.0691 88.4011 38.3191 88.4011 38.6003V86.2238C88.4011 89.1925 86.3387 91.6924 83.5575 92.3174H48.0273Z" fill="#3A9BD6"/>
<path d="M60.4833 56.7841C64.6875 56.7841 68.0956 53.376 68.0956 49.1718C68.0956 44.9677 64.6875 41.5596 60.4833 41.5596C56.2792 41.5596 52.8711 44.9677 52.8711 49.1718C52.8711 53.376 56.2792 56.7841 60.4833 56.7841Z" fill="#FEE218"/>
<path d="M71.413 56.7841C75.6172 56.7841 79.0253 53.376 79.0253 49.1718C79.0253 44.9677 75.6172 41.5596 71.413 41.5596C67.2089 41.5596 63.8008 44.9677 63.8008 49.1718C63.8008 53.376 67.2089 56.7841 71.413 56.7841Z" fill="#CD494C"/>
<path d="M26.1549 68.3338H11.371C9.64605 68.3338 8.24609 66.937 8.24609 65.2089C8.24609 63.4808 9.64605 62.084 11.371 62.084H26.1549C27.8799 62.084 29.2798 63.4808 29.2798 65.2089C29.2798 66.9338 27.8799 68.3338 26.1549 68.3338Z" fill="white"/>
<path d="M39.3607 52.2967H11.371C9.64605 52.2967 8.24609 50.8999 8.24609 49.1718C8.24609 47.4437 9.64605 46.0469 11.371 46.0469H39.3607C41.0857 46.0469 42.4856 47.4437 42.4856 49.1718C42.4856 50.8999 41.0857 52.2967 39.3607 52.2967Z" fill="white"/>
<path d="M20.525 84.3707H11.369C9.6441 84.3707 8.24414 82.9738 8.24414 81.2458C8.24414 79.5177 9.6441 78.1208 11.369 78.1208H20.525C22.25 78.1208 23.6499 79.5177 23.6499 81.2458C23.6499 82.9707 22.2531 84.3707 20.525 84.3707Z" fill="#8BD5EC"/>
<path d="M39.3609 84.3707H30.205C28.48 84.3707 27.0801 82.9738 27.0801 81.2458C27.0801 79.5177 28.48 78.1208 30.205 78.1208H39.3609C41.0859 78.1208 42.4858 79.5177 42.4858 81.2458C42.4858 82.9707 41.0859 84.3707 39.3609 84.3707Z" fill="#DAEFF6"/>
<path d="M58.1949 84.3707H49.039C47.314 84.3707 45.9141 82.9738 45.9141 81.2458C45.9141 79.5177 47.314 78.1208 49.039 78.1208H58.1949C59.9199 78.1208 61.3199 79.5177 61.3199 81.2458C61.3199 82.9707 59.9199 84.3707 58.1949 84.3707Z" fill="#8BD5EC"/>
<path d="M77.0289 84.3707H67.8729C66.148 84.3707 64.748 82.9738 64.748 81.2458C64.748 79.5177 66.148 78.1208 67.8729 78.1208H77.0289C78.7539 78.1208 80.1538 79.5177 80.1538 81.2458C80.1538 82.9707 78.7539 84.3707 77.0289 84.3707Z" fill="#DAEFF6"/>
</g>
<defs>
<clipPath id="clip0">
<rect width="100" height="100" fill="white"/>
</clipPath>
</defs>
</svg>
