<svg width="100" height="100" viewBox="0 0 100 100" fill="none" xmlns="http://www.w3.org/2000/svg">
<path d="M79.496 46.875C78.5489 46.875 77.6193 46.4172 77.0556 45.5703C76.1571 44.2229 76.5206 42.4061 77.8681 41.5076L91.5323 32.398C93.1659 31.308 94.1415 29.4855 94.1415 27.5229V17.5781C94.1415 14.348 91.5122 11.7188 88.2821 11.7188C85.0521 11.7188 82.4228 14.348 82.4228 17.5781C82.4228 19.1975 81.1124 20.5078 79.4931 20.5078C77.8737 20.5078 76.5634 19.1975 76.5634 17.5781C76.5634 11.115 81.8191 5.85938 88.2821 5.85938C94.7452 5.85938 100.001 11.115 100.001 17.5781V27.523C100.001 31.4512 98.0497 35.0961 94.7823 37.2734L81.1181 46.3828C80.6175 46.7148 80.0538 46.875 79.496 46.875Z" fill="#FF9F00"/>
<path d="M20.5049 46.875C19.9471 46.875 19.3834 46.7148 18.8826 46.3828L5.21855 37.2734C1.95117 35.0961 0 31.4512 0 27.523V17.5781C0 11.115 5.25566 5.85938 11.7188 5.85938C18.1818 5.85938 23.4375 11.115 23.4375 17.5781C23.4375 19.1975 22.1271 20.5078 20.5078 20.5078C18.8885 20.5078 17.5781 19.1975 17.5781 17.5781C17.5781 14.348 14.9488 11.7188 11.7188 11.7188C8.48867 11.7188 5.85938 14.348 5.85938 17.5781V27.523C5.85938 29.4857 6.83496 31.3082 8.46855 32.3982L22.1328 41.5078C23.4803 42.4063 23.8438 44.2229 22.9453 45.5705C22.3818 46.4172 21.452 46.875 20.5049 46.875Z" fill="#FDBF00"/>
<path d="M79.2969 0H20.7031C19.0623 0 17.7734 1.28887 17.7734 2.92969V38.0859C17.7734 47.9883 23.0471 55.8982 32.6561 60.4102C37.9297 62.8709 41.2109 68.0664 41.2109 73.6328C41.2109 75.2732 42.4998 76.5625 44.1406 76.5625H55.8594C57.5002 76.5625 58.7891 75.2732 58.7891 73.6328V72.6951C58.7891 67.832 61.4258 62.9297 65.5857 60.5857C75.6055 54.9023 82.2266 48.9256 82.2266 38.0859V2.92969C82.2266 1.28887 80.9377 0 79.2969 0Z" fill="#FFE470"/>
<path d="M82.2266 2.92969V38.0859C82.2266 48.9256 75.6055 54.9023 65.5857 60.5857C61.4258 62.9297 58.7891 67.832 58.7891 72.6951V73.6328C58.7891 75.2732 57.5002 76.5625 55.8594 76.5625H50V0H79.2969C80.9377 0 82.2266 1.28887 82.2266 2.92969Z" fill="#FFD400"/>
<path d="M61.7188 70.7031H38.2812C33.4178 70.7031 29.4922 74.6287 29.4922 79.4922V85.3516C29.4922 86.992 30.7811 88.2812 32.4219 88.2812H67.5781C69.2189 88.2812 70.5078 86.992 70.5078 85.3516V79.4922C70.5078 74.6287 66.5822 70.7031 61.7188 70.7031Z" fill="#384949"/>
<path d="M67.5781 82.4219H32.4219C27.5584 82.4219 23.6328 86.3475 23.6328 91.2109V97.0703C23.6328 98.7107 24.9217 100 26.5625 100H73.4375C75.0783 100 76.3672 98.7107 76.3672 97.0703V91.2109C76.3672 86.3475 72.4416 82.4219 67.5781 82.4219Z" fill="#4A696F"/>
<path d="M67.4019 24.3748C67.0504 23.2615 66.1131 22.4998 64.9998 22.3828L56.4449 21.0935L52.6365 13.3591C52.109 12.3632 51.0543 11.8357 49.9998 11.8357C48.9453 11.8357 47.8904 12.3632 47.3631 13.3591L43.5547 21.0935L34.9998 22.3828C33.8865 22.4998 32.9492 23.2615 32.5976 24.3748C32.2457 25.4294 32.539 26.6013 33.359 27.363L39.5699 33.3984L38.1051 41.8943C37.9295 43.0076 38.3396 44.1209 39.2769 44.7658C40.156 45.4103 41.3865 45.5271 42.324 45L49.9998 40.957L57.6756 45C58.6129 45.5271 59.8435 45.4689 60.7226 44.7658C61.6599 44.121 62.0701 43.0078 61.8945 41.8943L60.4297 33.3984L66.6406 27.363C67.4605 26.6013 67.7539 25.4294 67.4019 24.3748Z" fill="#FDBF00"/>
<path d="M57.6758 45L50 40.957V11.8357C51.0547 11.8357 52.1094 12.3632 52.6367 13.3591L56.4451 21.0935L65 22.3828C66.1133 22.4998 67.0506 23.2615 67.4021 24.3748C67.7541 25.4294 67.4607 26.6013 66.6408 27.363L60.4299 33.3984L61.8947 41.8943C62.0703 43.0076 61.6601 44.1209 60.7228 44.7658C59.8437 45.4687 58.6131 45.5271 57.6758 45Z" fill="#FF9F00"/>
<path d="M70.5078 79.4922V85.3516C70.5078 86.992 69.2189 88.2812 67.5781 88.2812H50V70.7031H61.7188C66.5822 70.7031 70.5078 74.6287 70.5078 79.4922Z" fill="#293939"/>
<path d="M76.3672 91.2109V97.0703C76.3672 98.7107 75.0783 100 73.4375 100H50V82.4219H67.5781C72.4416 82.4219 76.3672 86.3475 76.3672 91.2109Z" fill="#3E5959"/>
</svg>
